<svg xmlns="http://www.w3.org/2000/svg" xml:space="preserve" viewBox="0 0 192.75 165">
  <path fill="none" stroke="#33cc00" stroke-miterlimit="10" stroke-width="3" d="M174.597 125c3.637-9.357 5.653-19.523 5.653-30.166 0-46.024-37.31-83.333-83.333-83.333-46.024 0-83.333 37.31-83.333 83.333 0 10.643 2.017 20.809 5.653 30.166"/>
  <path fill="none" stroke="#33cc00" stroke-miterlimit="10" stroke-width="3" d="M146.501 125c5.135-8.639 8.092-18.722 8.092-29.5 0-31.94-25.893-57.833-57.834-57.833-31.939 0-57.833 25.893-57.833 57.833 0 10.779 2.958 20.862 8.092 29.5"/>
  <circle cx="97.083" cy="95.001" r="27.833" fill="none" stroke="#33cc00" stroke-miterlimit="10" stroke-width="3"/>
  <path fill="#33cc00" stroke="#33cc00" stroke-miterlimit="10" stroke-width="5" d="m97.084 95.001 58.919-58.92"/>
  <circle cx="97.083" cy="95.001" r="2" fill="#33cc00" stroke="#33cc00" stroke-miterlimit="10" stroke-width="3"/>
  <circle cx="95.145" cy="84.106" r="1.895" fill="#33cc00" stroke="#33cc00" stroke-miterlimit="10" stroke-width="5"/>
  <circle cx="120.364" cy="53.257" r="1.894" fill="#33cc00" stroke="#33cc00" stroke-miterlimit="10" stroke-width="5"/>
  <circle cx="89.75" cy="48.25" r="1.894" fill="#33cc00" stroke="#33cc00" stroke-miterlimit="10" stroke-width="5"/>
  <circle cx="64.856" cy="36.894" r="1.894" fill="#33cc00" stroke="#33cc00" stroke-miterlimit="10" stroke-width="5"/>
  <circle cx="82" cy="60.25" r="1.894" fill="#33cc00" stroke="#33cc00" stroke-miterlimit="10" stroke-width="5"/>
  <path id="uscm" fill="#33cc00" d="M18.035 127.965h7v22.016H42.85v-22.016h7.14v23.62c0 2.732-1.47 4.205-4.41 4.415H22.2c-2.567 0-3.955-1.448-4.165-4.346v-23.689zM86.29 156H58.075v-5.845h25.831v-5.11h-20.51c-3.547-.187-5.32-1.379-5.32-3.577v-10.171c0-2.058 1.771-3.168 5.315-3.332h27.445v5.985H64.9v5.18h21.35c2.847 0 4.375.98 4.585 2.94v10.5c-.21 2.287-1.725 3.43-4.545 3.43zm37.62-22.05h-19.04v16.205h19.04v-5.915h6.895v7.665c.21 1.703-.64 2.894-2.55 3.569-.814.304-1.793.479-2.934.525-2.98.023-10.722.023-23.226 0-2.515 0-3.865-1.354-4.051-4.064.046-3.411.046-10.292 0-20.642 0-2.056 1.772-3.165 5.32-3.329h22.05c3.336 0 5.133 1.108 5.39 3.325v7.735h-6.895v-5.074zM138.015 156v-28h7.63l11.2 18.375L169.024 128h7v28h-7.77v-14.805L159.574 156h-5.495l-8.295-14.455V156h-7.769z"/>
</svg>
